<svg id="1fb9c9a3-2e07-47eb-8368-98e912eb9243" data-name="Layer 1" xmlns="http://www.w3.org/2000/svg" viewBox="0 0 500 500"><defs><style>.fd357fdc-c041-4ba1-bb74-c9b0d2ddf279{fill:none;}.\34 26afd89-e604-4bd8-9fc7-48bf9d89faeb{fill:#fff;}.b2d1a122-5b28-4e50-8c9d-96d7543f99fa{fill:#d5b527;}</style></defs><title>bpi-logo</title><rect class="fd357fdc-c041-4ba1-bb74-c9b0d2ddf279" width="500" height="500"/><path class="426afd89-e604-4bd8-9fc7-48bf9d89faeb" d="M191.85,322V192.38h48.61q29.35,0,43.38,8.17t14,25.31q0,11.43-6.9,18.68t-20.79,10.5q16,2.9,23.73,10.68t7.73,20.87q0,17.76-12.61,26.59T250.92,322H191.85Zm34.72-77.09h13.89q11.59,0,17-3.56t5.36-11.12q0-7.21-5.63-10.81t-16.69-3.6H226.57v29.09Zm0,53.54h13.89q13.09,0,18.89-3.73t5.8-12.18q0-7.81-6-11.55t-18.72-3.74H226.57ZM317.19,322V192.38h59.43q25.39,0,38.45,10.5t13.06,30.89q0,20-12.92,31.08t-36,11.12H353.23V322Zm36-71.47h16q11.51,0,17-4.22t5.49-13.1q0-8.7-5.41-12.7t-17.1-4h-16v34Zm90.33-58.19h35.87V322H443.56Z" transform="translate(-0.68 -0.42)"/><path class="b2d1a122-5b28-4e50-8c9d-96d7543f99fa" d="M23.15,301.89c1.17,3,3.51,5.87,7.12,8.7,5.33,4.15,45.3,30.81,57.43,38.77l2.67,1.76,2.21-1.47c2.06-1.39,50.67-34.39,56.66-39.06,3.63-2.83,6-5.68,7.13-8.71a18.93,18.93,0,0,0,.62-11.39l0-.13c-.26-1.35-8.17-49.28-12.45-72.05A342.24,342.24,0,0,0,91,214.1c-.4,0-.8,0-1.2,0V338.33c-24.41-16-48.11-31.49-52.05-34.56-2.36-1.84-3.85-3.55-4.44-5.07-1-2.49-.61-4.62-.18-6.8.28-1.48,8.87-52.84,13-74.74-3.75.5-6.61,1-10.33,1.61-4.3,22.87-13,70.26-13.24,71.6a19.15,19.15,0,0,0,.6,11.52M54.92,236.5h4.33v3.73H63v-4h4.55v4h3.59V236.5h4.34v9.65H54.92Zm3.39,11.33H72.09L76.85,286H53.55Zm-7.36,40H79.45v9.65H71.79V295H58.61v2.49H50.95ZM62,268.7H68.5v-2.39H62Zm6.47-9.92H61.93v2.39h6.52Zm-6.52,17.47h6.52v-2.39H61.93Zm-4.2-77.42a35.75,35.75,0,0,0-7,1.35c-.41,2.16-1.16,6.36-1.87,9.69a297.2,297.2,0,0,1,41.5-3,296.2,296.2,0,0,1,39.07,2.67c-.68-3.23-1.38-7.26-1.79-9.38a23.8,23.8,0,0,0-6.75-1.34c9-2.12,14.48-8.43,14.48-14.53,0-8-6.34-14.42-21.91-16-5.55-4.34-13.21-6.19-19.88-6.73a6.56,6.56,0,0,0,2.74-5.38c0-3.59-3.61-6.5-7.06-6.5s-7.06,2.91-7.06,6.5A6.56,6.56,0,0,0,85,161.59c-6.66.55-14.32,2.39-19.88,6.73-15.57,1.56-21.91,7.94-21.91,16,0,6.12,5.5,12.42,14.57,14.53m59-25.53s11.82,1.08,11.72,11.35c-.09,8.17-9,12.6-20.17,11.2,15.46-6.27,12.14-18.18,8.46-22.55m-23.83-6.08c9.93.9,17.64,7.09,17.64,14.68s-8,14-18.1,14.71c2.05-2.75,3.48-8.41,3.48-15,0-6.11-1.21-11.4-3-14.36m-7.23,0c-1.8,3-3,8.26-3,14.36,0,6.61,1.42,12.27,3.48,15C76,195.88,68,189.61,68,181.9s7.72-13.78,17.64-14.68M61.83,173.3c-3.68,4.37-7,16.29,8.46,22.55-11.21,1.4-20.08-3-20.17-11.2-.11-10.28,11.71-11.35,11.71-11.35m58.58,132.34.36-1.36,2.3-.36c1.45-.93,1.31-3.93,2.74-4.79.66-.4,1,.17,1.33.56.45-1,.33-2.49.8-3.64,1.2-2.92,3.85-4.56,2.83-9.57l-.18-.22a8.89,8.89,0,0,1-1.15,1.71c-3.78-.23-2.39-8.66.18-9.43,1.82,5,9.77,6.49,10.25-.19.09-1.33-1-3.12-2.34-5.22a15.61,15.61,0,0,1,2.17-4.89c.46-.65-2.12.51-3.37,2.88a15.41,15.41,0,0,1,2.27-5.19c.43-.61-1.85.38-3.16,2.49a15.44,15.44,0,0,1,2.25-5.14c.48-.68-2.42.63-3.57,3.26a11.73,11.73,0,0,1-.65-4,77.6,77.6,0,0,1,2.26-14.45c.32-1.44,1.08-4.16,3.14-5.29a3.86,3.86,0,0,0-4.31,4.2,6.89,6.89,0,0,0-5.68-6.46c5.68,5,1,16.49,1,21.89.06,6.8,8.18,13.86,7,16.26-1.83,3.56-5.3-3.21-6.35-5.38s-4.79-5.53-7.43-8.16a9.59,9.59,0,0,0,3.45-7.07l.8.9h.35c-.37-2.84.75-5.79-.18-8.41h1.33c-.39-12.5-9.44-9.91-13.87-8.88l-.27.68,1.77.1v.11l-1.41.47a4.64,4.64,0,0,0,1.06,3.86c.42-.93.5-1.28,1.33-1.71,1.09.55,1.74,2.38,1.07,4.08a1.25,1.25,0,0,1-1.86-.78h-.09a4.88,4.88,0,0,0,1.06,5c.07-1.56.6-2.24,1.94-2.18-.4,3.78-2.94,2.91-5.48,3.9-4.72,1.85-6,8.9-10.24,10.07a6.33,6.33,0,0,0,3.26,3.72c-.65,1.14-3.2,4.8-4.41,4.92-.45-.58-.85-1.27-1.59-1.47l-2.21.58-.35.8,1,.23c0,.45-.06.91-.09,1.36a9.19,9.19,0,0,1,2,.44c0,.12.06.23.09.35a3.93,3.93,0,0,0-2.12-.21c-.44.34-1.49,2.14-1.24,3v.23l.62-.57c.46.13.43.24.53.79l.44.23,1.68-1.6h.09l.18.34-1.5,1.6a15.42,15.42,0,0,0-.09,3.18l1.06-1c1.38,1.35,2.21-.41,3-1.73a2.42,2.42,0,0,0,1.59.56l.09,1h.09c2.22-2.17-.62-4,2-6.6a3,3,0,0,0,3.36,0l.62-.91a2.2,2.2,0,0,1-1.41-1.24c0-.49,0-.55.18-.8.53-1.19,2.43-1,3.53-.6,2.83,1.13,4.54,3.7,6.63,5.75-.18,2.6-.5,6,.09,8.41s2.28,3.44,1.68,6.46a2.18,2.18,0,0,0,2-1.49l1.24.1c-1.09,2-3,5.82-5.12,6.41s-2.71-1.83-4.51-1.22l-.79.8c-.85.43-1.08-.17-1.59.91v.34l1,.11c.09.41.18.83.27,1.25l1.5-1.72c0,.08.06.15.09.22a12.88,12.88,0,0,0-1.86,2.74,6.19,6.19,0,0,0,.09,1.93l.18.11.53-.91H116l.44.67h.35c.18-.95.35-1.9.53-2.84l.26-.24.09.11a8.5,8.5,0,0,0-.35,4.89l.35.35c.09-.27.18-.54.27-.8a1.61,1.61,0,0,1,1.41-.46c.1-1.24-.32-2.34.53-3.07a7.73,7.73,0,0,0-.08,4.54l.62.45M119,243.71v-1.54c1.1,0,2.48-.15,3.19.32L119,243.71M121,290.08V290c-1.09-.87-4.81-5.35-3.63-8,.49-1.43,1.85-1.08,2.65-.36.06-.8.12-1.59.18-2.39-.72-1.11-2.46-1.59-1.76-3.51-4.72-3.79-4.37,2.61-8.4,2.56.17,1.44.87,2.55,2.12,2.6a8.53,8.53,0,0,0,2.47,6.35l.09.34c-1.78.21-4,.5-5.3-.53-1.56-1.29-1.91-3.24-4.6-3v.11l.44.67c.06.41-.12.56-.27,1v.12l1.5.44h.18v.45c-1.47-.28-3-.26-3.54,1.39v.12h.89a3.41,3.41,0,0,1,.53,1.59l1.59-1.83h.09c-.28,1.68-1.72,2.18-1.86,4.21v.12a2.74,2.74,0,0,0,1.06-.57l.88.9a5.41,5.41,0,0,0,.7-2.05h.35c-.25,1.24-.9,2.74-.44,4l.44.56.35-1.13c.55-.38.9.37,1.86,0s1.08-1.9,2.65-1.95a2.08,2.08,0,0,1,.62,1.7c1-.28,1.34-1.31,2.21-1.61,3.06-1,3.78.46,5.92-2.09m-7.79-40c2-.21,2.68-2.44,4.8-2.53v-.16a3.45,3.45,0,0,0-1.52-.07c-1,.27-5.58,2.8-3.77-1.15-1.46.58-2.06,4.17.49,3.91m-14.12,10v.11c.49.62,1.63.46,2.48.44l1-1.48h.18l3.09,4H106a21.06,21.06,0,0,0,2.48-3.43c-.34-1.92-2.53-2.8-3.09-4.64-.66-2.11,1.38-5-1.24-6.47,0,1.06-.44,1.33-.53,1.93s.12,1.21.18,1.82v.23h-.09c-.39-.48-.31-1.18-.62-1.81a4.67,4.67,0,0,0-2.65-1.68v.12a9.18,9.18,0,0,1,.18,2l1.15,1.93v.45h-.27l-1.24-1.47a3.7,3.7,0,0,0-2.48.24l.8.91c.59,1,3.52,4.41.53,6.81M117,234.34a6,6,0,0,1,3.11-1,1,1,0,0,1-.43-.84,1.11,1.11,0,0,1,2.2,0,1,1,0,0,1-.43.84,5.94,5.94,0,0,1,3.11,1c2.43.25,3.43,1.24,3.43,2.5,0,1-1,2.16-2.71,2.36-.06.35-.11.86-.15,1.06a19.6,19.6,0,0,0-4.36-.46,21.88,21.88,0,0,0-4.36.46c0-.19-.09-.7-.15-1.06-1.68-.21-2.7-1.31-2.7-2.36,0-1.26,1-2.25,3.42-2.5m9.91,2.55c0-1.41-1.71-1.56-1.71-1.56.54.6,1,2.24-1.23,3.1,1.64.19,2.93-.42,2.94-1.54m-2.8-.42c0-1.06-1.2-1.91-2.76-2a3.74,3.74,0,0,1,.47,2,3.49,3.49,0,0,1-.55,2.09c1.59-.1,2.84-1,2.84-2.05m-3.82,2.05a3.48,3.48,0,0,1-.55-2.09,3.74,3.74,0,0,1,.47-2c-1.55.13-2.76,1-2.76,2s1.25,1.94,2.83,2m-2.66-.05c-2.28-.87-1.79-2.53-1.25-3.13,0,0-1.74.15-1.72,1.57,0,1.13,1.32,1.75,3,1.56" transform="translate(-0.68 -0.42)"/></svg>