<svg id="11238c4f-98d2-4bcd-88d6-898defb949bc" data-name="Layer 1" xmlns="http://www.w3.org/2000/svg" viewBox="0 0 498.89 498.89"><defs><style>.\39 e2f14c1-6577-4ead-b7ae-6edaa842e7a8{fill:#1677f0;}.\30 adef9fc-5506-419d-8e04-aaf776a791c6{fill:#fff;}</style></defs><title>facebook-logo</title><path class="9e2f14c1-6577-4ead-b7ae-6edaa842e7a8" d="M-66.88,219.45C-66.88,81.68-178.56-30-316.33-30S-565.78,81.68-565.78,219.45c0,124.51,91.22,227.7,210.47,246.41V291.55h-63.34V219.45h63.34v-55c0-62.52,37.24-97,94.22-97,27.29,0,55.84,4.87,55.84,4.87V133.7H-236.7c-31,0-40.65,19.23-40.65,39v46.79h69.18l-11.06,72.11h-58.12V465.86C-158.1,447.15-66.88,344-66.88,219.45Z" transform="translate(565.78 30)"/><path class="0adef9fc-5506-419d-8e04-aaf776a791c6" d="M-219.23,291.55l11.06-72.11h-69.18V172.65c0-19.73,9.66-39,40.65-39h31.45V72.31s-28.55-4.87-55.84-4.87c-57,0-94.22,34.53-94.22,97v55h-63.34v72.11h63.34V465.86a251.32,251.32,0,0,0,39,3,251.32,251.32,0,0,0,39-3V291.55Z" transform="translate(565.78 30)"/></svg>