<svg id="ba7e4705-0201-461f-b088-87cffbed6263" data-name="Layer 1" xmlns="http://www.w3.org/2000/svg" viewBox="0 0 491.33 416.68"><defs><style>.\31 6d7a301-f5ce-41d4-8fa0-c86f3f241ca0{fill:#fff;}.\38 a2754de-76a4-44bb-8240-aeb20f215728{fill:#022db8;}.bae0c781-95f5-42d5-888f-bfe4448eb4cb{fill:#70baf7;}</style></defs><title>gcash-logo</title><path id="290afbcc-c0d0-4cc2-993a-0148f8be7a79" data-name="path4" class="16d7a301-f5ce-41d4-8fa0-c86f3f241ca0" d="M198.58,92.85a82.07,82.07,0,0,1,27.58-5A79.65,79.65,0,0,1,268,98.95a24,24,0,0,1,4.09,2.81,14.42,14.42,0,0,1,4.7,11,14.24,14.24,0,0,1-2.49,8,15,15,0,0,1-8.56,6A14.7,14.7,0,0,1,254.21,125a50.55,50.55,0,0,0-23.43-7.64,51,51,0,1,0,44.3,68.28,17.38,17.38,0,0,0,.82-2.62q-15.18,0-30.35,0a34.26,34.26,0,0,1-6.84-.35,14.67,14.67,0,0,1-9.5-6.8,14.87,14.87,0,0,1-1.8-10.5,14.72,14.72,0,0,1,14.3-11.78c16.12,0,32.24-.07,48.36,0a28.18,28.18,0,0,1,5.87.3,14.69,14.69,0,0,1,11.6,14.53,79.81,79.81,0,0,1-8.06,34.94A80.48,80.48,0,0,1,151,194.25a82.06,82.06,0,0,1,.11-52.74,79.65,79.65,0,0,1,26.71-37.19,78.34,78.34,0,0,1,20.77-11.48Zm220,253.56a4.19,4.19,0,0,1,3.92-2.88H434a4.19,4.19,0,0,1,3.79,2.44,6.81,6.81,0,0,1,.36,3c0,10.44,0,20.88,0,31.32a49.93,49.93,0,0,1,4.69-3.44c7.71-4.68,17.16-6,26-4.61A31.25,31.25,0,0,1,487,381.71,35.28,35.28,0,0,1,495.72,401a50.17,50.17,0,0,1,.49,8c-.17,2.19,0,4.39-.08,6.58v35.12a14.36,14.36,0,0,1-.2,3.24,4.27,4.27,0,0,1-3.79,2.56H480.62a4.08,4.08,0,0,1-4-3.87v-33c0-4.29.14-8.59-.26-12.86a24.37,24.37,0,0,0-4.24-11.83,16.93,16.93,0,0,0-7.89-5.92,21.27,21.27,0,0,0-12.63-.31,16.77,16.77,0,0,0-9,6.31c-3.18,4.37-4.34,9.89-4.42,15.22q0,21.11,0,42.21a4.16,4.16,0,0,1-4,4.08c-3.9,0-7.81,0-11.72,0a4.19,4.19,0,0,1-4.11-4.27q0-51.62,0-103.24a9,9,0,0,1,.2-2.58ZM45.12,350.06a58.62,58.62,0,0,1,14.08-1.86,55.58,55.58,0,0,1,25.72,5.57,50.69,50.69,0,0,1,19,15.95,5.14,5.14,0,0,1,.21,5.57,5.21,5.21,0,0,1-2.06,2q-3.83,2.23-7.67,4.41a5.34,5.34,0,0,1-6.76-1.22,32.19,32.19,0,0,0-18.52-12,39.78,39.78,0,0,0-13.15-.8,33.93,33.93,0,0,0-18,7.05,34.32,34.32,0,0,0-10.57,14,36.08,36.08,0,0,0-2.48,10.35,37.81,37.81,0,0,0,3.53,20.46A34.48,34.48,0,0,0,38,431.06,36.2,36.2,0,0,0,59,438.7a34.93,34.93,0,0,0,15.41-2.91,36.78,36.78,0,0,0,12.73-8.58,28.15,28.15,0,0,0,7.45-15.11q-14.53,0-29.07,0A5.18,5.18,0,0,1,60,406.75c0-2.56,0-5.12,0-7.69a5.24,5.24,0,0,1,5.13-4.88h40.3a11,11,0,0,1,4.25.45,6.68,6.68,0,0,1,4.32,6c0,3-.21,5.9-.28,8.85a42.52,42.52,0,0,1-1.71,10,50.76,50.76,0,0,1-11.5,21.11,56.4,56.4,0,0,1-18.38,12.32,59.74,59.74,0,0,1-12.05,3.7,50.75,50.75,0,0,1-14.2.69,54.06,54.06,0,0,1-43.5-26.39,52.14,52.14,0,0,1-6.5-17.49,61.55,61.55,0,0,1-.07-20.7,51.47,51.47,0,0,1,6.7-18.05A56.71,56.71,0,0,1,25,360.3a51.91,51.91,0,0,1,20.08-10.24Zm131.22-1.74a58.1,58.1,0,0,1,18.2,1.59,51.57,51.57,0,0,1,30,21,4.26,4.26,0,0,1-1.5,5.85q-4.92,2.85-9.83,5.71a4.28,4.28,0,0,1-4.67-.36A8.41,8.41,0,0,1,207,380.2a30,30,0,0,0-10.54-9,33.49,33.49,0,0,0-15.23-3.72,37.8,37.8,0,0,0-17.82,3.82,33.3,33.3,0,0,0-16.89,21.29,42.75,42.75,0,0,0-.82,16.48,34.66,34.66,0,0,0,4.67,13.2,33,33,0,0,0,14.42,12.82,36.54,36.54,0,0,0,13.56,3.09,48.49,48.49,0,0,0,7.06-.21c8.42-1.06,16.62-5.36,21.56-12.38a6.78,6.78,0,0,1,2-2.27,4.31,4.31,0,0,1,4.48,0c3.21,1.85,6.44,3.67,9.65,5.52a4.18,4.18,0,0,1,2.06,4c-.07,1.43-1.09,2.52-1.86,3.64a49.37,49.37,0,0,1-16.36,14.35,53.2,53.2,0,0,1-23.19,6.59,58.66,58.66,0,0,1-26.64-4.67,54,54,0,0,1-28.37-30.71,56.72,56.72,0,0,1-3.09-16.84,55.68,55.68,0,0,1,6.62-29.42,54.32,54.32,0,0,1,11.08-13.86,51.34,51.34,0,0,1,15.42-9.72,56.67,56.67,0,0,1,17.57-3.91Zm93.8,22.24a39.94,39.94,0,0,1,12.83.67,29.25,29.25,0,0,1,11.29,5.22A19.88,19.88,0,0,1,301.72,387a18.23,18.23,0,0,0,.11-2.89c0-2.82,0-5.63,0-8.45a4.13,4.13,0,0,1,4.16-4c4,0,7.95,0,11.92,0a4.14,4.14,0,0,1,3.84,4.15q0,38,0,76a5.4,5.4,0,0,1-.28,2,4.21,4.21,0,0,1-4,2.62H306a4.18,4.18,0,0,1-4.16-3.88c0-2.46,0-4.93,0-7.39-1,.82-1.87,1.79-2.83,2.65a38.92,38.92,0,0,1-10.45,7,36,36,0,0,1-23.77,1.74,37.74,37.74,0,0,1-18.5-11.22,44.47,44.47,0,0,1-10.61-21.65,52.26,52.26,0,0,1,1.57-26.11A40.87,40.87,0,0,1,248.69,380a38.18,38.18,0,0,1,21.45-9.4Zm6.2,17.38a22.55,22.55,0,0,0-8.86,2.55,22.05,22.05,0,0,0-7.91,7.25c-6.58,9.93-6.1,23.86.88,33.45a22.27,22.27,0,0,0,7.83,6.74,22.72,22.72,0,0,0,22.48-1.33A24.18,24.18,0,0,0,301,421.34a34,34,0,0,0,.21-13.67,26.11,26.11,0,0,0-4.55-10.59,22.92,22.92,0,0,0-8.41-6.94A23.21,23.21,0,0,0,276.34,387.94Zm71.12-11.68c6.61-4.29,14.62-6,22.44-5.91a42.49,42.49,0,0,1,12.41,1.72,30,30,0,0,1,11,5.88,26.84,26.84,0,0,1,9,16.89,4.21,4.21,0,0,1-3.62,4.63c-3.25-.11-6.51,0-9.77,0a12.94,12.94,0,0,1-4.21-.37,4.19,4.19,0,0,1-2.08-2.52,12.28,12.28,0,0,0-1.45-3.55,11.45,11.45,0,0,0-6.4-4.72,21.86,21.86,0,0,0-8.53-.72c-2.86.3-5.89,1-8,3.14a6.56,6.56,0,0,0-1.54,6.2c.78,2.75,3.41,4.38,5.87,5.48a81.37,81.37,0,0,0,11.58,3.77,113,113,0,0,1,11.79,3.74,36.29,36.29,0,0,1,9.92,5.63,20.8,20.8,0,0,1,6.25,8.53,23.61,23.61,0,0,1,1.4,11,22.92,22.92,0,0,1-4.12,10.62,24.86,24.86,0,0,1-6.38,6.11,34.44,34.44,0,0,1-12.49,5.14,46.77,46.77,0,0,1-24.83-1.61,32.78,32.78,0,0,1-16-11.85,26.53,26.53,0,0,1-3.44-7.11,11.55,11.55,0,0,1-.72-4.24,4.16,4.16,0,0,1,4-3.55c4,0,8.06,0,12.09,0a4.24,4.24,0,0,1,3.41,1.5c.78.84.86,2,1.37,3a12.27,12.27,0,0,0,6.15,6,17.65,17.65,0,0,0,7.88,1.68,19.06,19.06,0,0,0,10-2.24,7.34,7.34,0,0,0,3.48-4.57,5.68,5.68,0,0,0-.52-4.25,10,10,0,0,0-4.52-3.72,62.52,62.52,0,0,0-10.35-3.48,134.67,134.67,0,0,1-14.15-4.29,39.18,39.18,0,0,1-8.13-4.13,21.78,21.78,0,0,1-7-7.35,22,22,0,0,1-2.72-11.44A21,21,0,0,1,340.41,383a26.06,26.06,0,0,1,7-6.77Z" transform="translate(-5 -41.17)"/><path id="fd0638b9-a0fd-4dc8-a769-709eee8f8790" data-name="path6" class="8a2754de-76a4-44bb-8240-aeb20f215728" d="M222.21,41.27a126.13,126.13,0,0,1,50.55,8.39,129.39,129.39,0,0,1,30.46,16.94,20.74,20.74,0,0,1,4,3.53,14.45,14.45,0,0,1,3.16,9.05,14.2,14.2,0,0,1-2.47,8.22,14.4,14.4,0,0,1-8.29,5.92,14.71,14.71,0,0,1-9.65-.76c-1.92-.76-3.44-2.17-5.11-3.34a97.74,97.74,0,0,0-125.77,8.63c-1.19,1.25-2.49,2.38-3.6,3.7A96,96,0,0,0,143,118.05a99.84,99.84,0,0,0-4.91,9.28,98.36,98.36,0,0,0,.64,83.25,98.91,98.91,0,0,0,21.86,29.55,97.51,97.51,0,0,0,36.11,21.25,99.35,99.35,0,0,0,25,4.65,100.85,100.85,0,0,0,21.72-1.24,98.87,98.87,0,0,0,43.93-19.42,14.47,14.47,0,0,1,10.35-2.49,15,15,0,0,1,12,10.05,14.42,14.42,0,0,1-5.51,16.37,125.38,125.38,0,0,1-54.28,24,122.78,122.78,0,0,1-21.84,2,125.61,125.61,0,0,1-72.65-22A127.48,127.48,0,0,1,105,203.63c-1-3.63-2-7.28-2.64-11a123.33,123.33,0,0,1-2-14.45,135.91,135.91,0,0,1-.28-14.77A126.15,126.15,0,0,1,131,85c2.16-2.44,4.35-4.86,6.72-7.1a119.66,119.66,0,0,1,13-11.32c2.5-1.81,5-3.67,7.59-5.28A125.17,125.17,0,0,1,195.82,45a128,128,0,0,1,26.38-3.73Z" transform="translate(-5 -41.17)"/><path id="02017ece-cd80-4d0d-aa57-85270034a7e3" data-name="path8" class="bae0c781-95f5-42d5-888f-bfe4448eb4cb" d="M367.86,81.56A14.6,14.6,0,0,1,378,84.26a14.18,14.18,0,0,1,4.36,5A174.71,174.71,0,0,1,383.52,245a22.79,22.79,0,0,1-3.17,5.28,14.76,14.76,0,0,1-6.5,4.23A14.57,14.57,0,0,1,361.71,253a14.2,14.2,0,0,1-6-7.28,14.94,14.94,0,0,1,.52-11.48,143.41,143.41,0,0,0,14.55-46.81,146.38,146.38,0,0,0-6.62-66.45c-1.57-4.71-3.53-9.28-5.56-13.81-.71-1.41-1.34-2.85-2.09-4.23a14.9,14.9,0,0,1-.63-12.19,14.58,14.58,0,0,1,11.95-9.14Zm-40.5,25.3a14.68,14.68,0,0,1,15.59,9.06,126.43,126.43,0,0,1,10.25,36.74,131.11,131.11,0,0,1-.3,33.5A125.91,125.91,0,0,1,342.31,222a14.61,14.61,0,0,1-27-10.72,28.26,28.26,0,0,1,1.2-3,98.42,98.42,0,0,0,5.44-64.34,100.21,100.21,0,0,0-4.64-13.79,49.09,49.09,0,0,1-2-4.74,14.82,14.82,0,0,1,1.13-10.8,14.54,14.54,0,0,1,11-7.67Zm57.33,292.19a12.94,12.94,0,0,0,4.21.37c3.25,0,6.51-.06,9.77,0-.18.21-.51.09-.74.13-4,0-8.07.05-12.11,0a1.32,1.32,0,0,1-1.12-.5ZM496.21,409a14.86,14.86,0,0,1,.1,2.74q0,20.35,0,40.69c0,.51,0,1.12-.39,1.5a14.38,14.38,0,0,0,.2-3.24V415.57C496.17,413.38,496,411.18,496.21,409Z" transform="translate(-5 -41.17)"/></svg>