<svg id="2aefb4c1-1a25-49de-b23b-9307bd0a5191" data-name="Layer 1" xmlns="http://www.w3.org/2000/svg" xmlns:xlink="http://www.w3.org/1999/xlink" viewBox="0 0 500 500"><defs><style>.\37 7e5469c-a25c-4a79-a250-0088eae456af{fill:none;}.f24400fb-2b1b-4295-bf3c-bbf090ed72e3{clip-path:url(#804c2d49-2138-42cb-915e-7fe4731f3ab6);}.\31 2f05628-e556-47a3-a313-57368c53bbbb{fill:#75eea5;}</style><clipPath id="804c2d49-2138-42cb-915e-7fe4731f3ab6" transform="translate(-0.62 -0.18)"><rect class="77e5469c-a25c-4a79-a250-0088eae456af" x="14.87" y="182.4" width="471.51" height="135.57"/></clipPath></defs><title>maya-logo</title><g class="f24400fb-2b1b-4295-bf3c-bbf090ed72e3"><path class="12f05628-e556-47a3-a313-57368c53bbbb" d="M118.94,182.4a41.56,41.56,0,0,0-29.05,11.83l4.21,8-1.73,1.39a42.1,42.1,0,0,0-35.91-21.05c-22.9,0-41.43,20-41.43,43.53v50.52a3.12,3.12,0,0,0,3.24,3.24H34.86a3,3,0,0,0,3.07-3.07V225.55c0-11.66,7.07-21.05,19.11-21.05,11.24,0,19.28,8.42,19.28,20.84v42.1a3.07,3.07,0,0,0,3,3.28h15.7a3.07,3.07,0,0,0,3-3.28v-42.1a19.49,19.49,0,0,1,19.7-20.84c12,0,18.69,9.56,18.69,21.05v51.16a3.2,3.2,0,0,0,3.24,3.07h16.42a3.07,3.07,0,0,0,3.24-3.24V226C159.4,202.44,141.68,182.4,118.94,182.4Z" transform="translate(-0.62 -0.18)"/><path class="12f05628-e556-47a3-a313-57368c53bbbb" d="M267.69,184.29H252.62a3,3,0,0,0-3.24,3.07v2.06l5.35,8.42-1.47,1.43a47.7,47.7,0,0,0-35.79-16.84,49.64,49.64,0,0,0-.29,99.15,48,48,0,0,0,36-16.84l1.26,1-5.35,8.76v1.94a3.2,3.2,0,0,0,3.24,3.24h15.37a3.07,3.07,0,0,0,3.24-3.24V187.36a2.95,2.95,0,0,0-3.24-3.07Zm-50.52,76a28.25,28.25,0,1,1,20-8.27A28.25,28.25,0,0,1,217.17,260.28Z" transform="translate(-0.62 -0.18)"/><path class="12f05628-e556-47a3-a313-57368c53bbbb" d="M483.09,184.29H468a3,3,0,0,0-3.24,3.07v2.06l5.35,8.42-1.47,1.43a47.71,47.71,0,0,0-35.79-16.84,49.64,49.64,0,1,0,0,99.28,48,48,0,0,0,36-16.84l1.26,1-5.35,8.76v1.94a3.19,3.19,0,0,0,.23,1.25,3.26,3.26,0,0,0,.7,1.06,3.21,3.21,0,0,0,2.3.94h15.07a3.08,3.08,0,0,0,1.27-.2,3.07,3.07,0,0,0,2-3V187.36a2.95,2.95,0,0,0-2-2.93A3,3,0,0,0,483.09,184.29Zm-50.23,76a28.25,28.25,0,1,1,20-8.27A28.25,28.25,0,0,1,432.86,260.28Z" transform="translate(-0.62 -0.18)"/><path class="12f05628-e556-47a3-a313-57368c53bbbb" d="M370.84,184.29H355.39c-2.48,0-3.83,1.35-3.83,2.65v46.61a23.12,23.12,0,0,1-24.25,24.63c-13.56,0-22.31-10.1-22.31-24.63V186.94c0-1.31-2.11-2.65-3.45-2.65H284.7a2.91,2.91,0,0,0-2.65,2.65v46.31a45.81,45.81,0,0,0,45.05,46.31A47.37,47.37,0,0,0,358.5,267.7l.88.8-6.86,9.35v3.75c0,9.56-14.36,14.9-22.73,14.9h-5.35a3.24,3.24,0,0,0-3.45,3.07v15.24a3.37,3.37,0,0,0,3.45,3.07h5.35c25.6,0,44.29-14.9,44.29-43v-88a3.11,3.11,0,0,0-3.24-2.65Z" transform="translate(-0.62 -0.18)"/></g><rect class="77e5469c-a25c-4a79-a250-0088eae456af" width="500" height="500"/></svg>