<svg id="101f4ca4-343d-452a-a8bd-9dd71fb4974c" data-name="Layer 1" xmlns="http://www.w3.org/2000/svg" xmlns:xlink="http://www.w3.org/1999/xlink" viewBox="0 0 488.89 488.89"><defs><style>.\32 995defa-2843-4b81-8384-7ce77e4f1095{fill:#282828;}.\32 995defa-2843-4b81-8384-7ce77e4f1095,.\39 6fd76b2-a1b1-41c6-ac5a-10c94c129fee,.cd30bb5c-78d8-469f-a63c-db840b66a6f7{fill-rule:evenodd;}.\39 6fd76b2-a1b1-41c6-ac5a-10c94c129fee{fill:url(#da2afbeb-70f2-424c-bd3d-a0c005842b99);}.cd30bb5c-78d8-469f-a63c-db840b66a6f7{fill:#fff;}</style><radialGradient id="da2afbeb-70f2-424c-bd3d-a0c005842b99" cx="62.91" cy="656.34" r="0.67" gradientTransform="matrix(800, 0, 0, -800, -50225, 525567.31)" gradientUnits="userSpaceOnUse"><stop offset="0" stop-color="#0797fd"/><stop offset="0.61" stop-color="#9d33fd"/><stop offset="0.93" stop-color="#fd5280"/><stop offset="1" stop-color="#fd7061"/></radialGradient></defs><title>messenger-logo</title><g id="6c7df87b-0886-4f01-85c7-0a55878b262c" data-name="logo"><path id="ba3f41fb-6baa-4c75-8a45-f410c3f70f27" data-name="bubble" class="2995defa-2843-4b81-8384-7ce77e4f1095" d="M249.84.89" transform="translate(-5.55 -5.55)"/></g><g id="0d49b147-16e2-423e-b80d-2e14d35e7e9a" data-name="logo"><path id="13d6a123-dda3-4d37-aac2-fbd34b2cd8ab" data-name="bubble" class="96fd76b2-a1b1-41c6-ac5a-10c94c129fee" d="M250,5.55C112.3,5.55,5.55,106.42,5.55,242.67c0,71.27,29.21,132.85,76.77,175.38A19.52,19.52,0,0,1,88.89,432l1.33,43.48a19.55,19.55,0,0,0,27.44,17.29l48.52-21.42a19.51,19.51,0,0,1,13.06-1,266.59,266.59,0,0,0,70.76,9.4c137.7,0,244.45-100.87,244.45-237.11S387.7,5.55,250,5.55Z" transform="translate(-5.55 -5.55)"/><path id="eb0b1b30-3bf6-419c-8a63-00c0c006be5d" data-name="bolt" class="cd30bb5c-78d8-469f-a63c-db840b66a6f7" d="M103.21,312,175,198.09a36.67,36.67,0,0,1,53-9.78l57.11,42.83a14.67,14.67,0,0,0,17.67-.05l77.13-58.54c10.3-7.81,23.73,4.51,16.84,15.44L325,301.91a36.67,36.67,0,0,1-53,9.78l-57.11-42.83a14.67,14.67,0,0,0-17.67.05l-77.13,58.54C109.76,335.26,96.32,322.94,103.21,312Z" transform="translate(-5.55 -5.55)"/></g></svg>